<svg width="177" height="172" viewBox="0 0 177 172" fill="none" xmlns="http://www.w3.org/2000/svg">
<path d="M0 86C3.1826 86 6.23484 84.7357 8.48528 82.4853C10.7357 80.2348 12 77.1826 12 74C12 70.8174 10.7357 67.7652 8.48528 65.5147C6.23485 63.2643 3.1826 62 2.86102e-06 62L0 86Z" fill="#627EEA"/>
<line x1="12" y1="74" x2="29" y2="74" stroke="#627EEA" stroke-width="2"/>
<path d="M87 132C79.3833 132 71.8412 130.5 64.8044 127.585C57.7675 124.67 51.3736 120.398 45.9878 115.012C40.602 109.626 36.3298 103.233 33.415 96.1956C30.5002 89.1587 29 81.6167 29 74C29 66.3833 30.5002 58.8412 33.415 51.8044C36.3298 44.7675 40.602 38.3736 45.9878 32.9878C51.3736 27.602 57.7675 23.3298 64.8044 20.415C71.8412 17.5002 79.3833 16 87 16" stroke="#627EEA" stroke-width="2" stroke-linecap="round" stroke-linejoin="round"/>
<path d="M176 62C172.817 62 169.765 63.2643 167.515 65.5147C165.264 67.7652 164 70.8174 164 74C164 77.1826 165.264 80.2348 167.515 82.4853C169.765 84.7357 172.817 86 176 86L176 62Z" fill="url(#paint0_linear_328_2417)"/>
<line x1="164" y1="74" x2="145" y2="74" stroke="url(#paint1_linear_328_2417)" stroke-width="2"/>
<path d="M87 16C94.6167 16 102.159 17.5002 109.196 20.415C116.233 23.3298 122.626 27.602 128.012 32.9878C133.398 38.3736 137.67 44.7675 140.585 51.8044C143.5 58.8413 145 66.3833 145 74C145 81.6167 143.5 89.1588 140.585 96.1957C137.67 103.233 133.398 109.626 128.012 115.012C122.626 120.398 116.233 124.67 109.196 127.585C102.159 130.5 94.6167 132 87 132" stroke="url(#paint2_linear_328_2417)" stroke-width="2" stroke-linecap="round" stroke-linejoin="round"/>
<g filter="url(#filter0_f_328_2417)">
<ellipse cx="95.0964" cy="124.339" rx="41" ry="11" transform="rotate(-7.61849 95.0964 124.339)" fill="#0A0845" fill-opacity="0.6"/>
</g>
<g filter="url(#filter1_dd_328_2417)">
<circle cx="87" cy="74.0001" r="50" fill="white"/>
</g>
<g filter="url(#filter2_i_328_2417)">
<circle cx="87" cy="74.0001" r="50" fill="url(#paint3_linear_328_2417)"/>
</g>
<g clip-path="url(#clip0_328_2417)">
<line x1="-769.146" y1="-350.854" x2="79.8536" y2="498.146" stroke="#757D91"/>
<line x1="-760.146" y1="-350.854" x2="88.8536" y2="498.146" stroke="#757D91"/>
<line x1="-751.146" y1="-350.854" x2="97.8536" y2="498.146" stroke="#757D91"/>
<line x1="-742.146" y1="-350.854" x2="106.854" y2="498.146" stroke="#757D91"/>
<line x1="-733.146" y1="-350.854" x2="115.854" y2="498.146" stroke="#757D91"/>
<line x1="-724.146" y1="-350.854" x2="124.854" y2="498.146" stroke="#757D91"/>
<line x1="-715.146" y1="-350.854" x2="133.854" y2="498.146" stroke="#757D91"/>
<line x1="-706.146" y1="-350.854" x2="142.854" y2="498.146" stroke="#757D91"/>
<line x1="-697.146" y1="-350.854" x2="151.854" y2="498.146" stroke="#757D91"/>
<line x1="-688.146" y1="-350.854" x2="160.854" y2="498.146" stroke="#757D91"/>
<line x1="-679.146" y1="-350.854" x2="169.854" y2="498.146" stroke="#757D91"/>
<line x1="-670.146" y1="-350.854" x2="178.854" y2="498.146" stroke="#757D91"/>
<line x1="-661.146" y1="-350.854" x2="187.854" y2="498.146" stroke="#757D91"/>
<line x1="-652.146" y1="-350.854" x2="196.854" y2="498.146" stroke="#757D91"/>
<line x1="-643.146" y1="-350.854" x2="205.854" y2="498.146" stroke="#757D91"/>
<line x1="-634.146" y1="-350.854" x2="214.854" y2="498.146" stroke="#757D91"/>
<line x1="-625.146" y1="-350.854" x2="223.854" y2="498.146" stroke="#757D91"/>
<line x1="-616.146" y1="-350.854" x2="232.854" y2="498.146" stroke="#757D91"/>
<line x1="-607.146" y1="-350.854" x2="241.854" y2="498.146" stroke="#757D91"/>
<line x1="-598.146" y1="-350.854" x2="250.854" y2="498.146" stroke="#757D91"/>
<line x1="-589.146" y1="-350.854" x2="259.854" y2="498.146" stroke="#757D91"/>
<line x1="-580.146" y1="-350.854" x2="268.854" y2="498.146" stroke="#757D91"/>
<line x1="-571.146" y1="-350.854" x2="277.854" y2="498.146" stroke="#757D91"/>
<line x1="-562.146" y1="-350.854" x2="286.854" y2="498.146" stroke="#757D91"/>
<line x1="-553.146" y1="-350.854" x2="295.854" y2="498.146" stroke="#757D91"/>
<line x1="-544.146" y1="-350.854" x2="304.854" y2="498.146" stroke="#757D91"/>
<line x1="-535.146" y1="-350.854" x2="313.854" y2="498.146" stroke="#757D91"/>
<line x1="-526.146" y1="-350.854" x2="322.854" y2="498.146" stroke="#757D91"/>
<line x1="-517.146" y1="-350.854" x2="331.854" y2="498.146" stroke="#757D91"/>
<line x1="-508.146" y1="-350.854" x2="340.854" y2="498.146" stroke="#757D91"/>
<line x1="-499.146" y1="-350.854" x2="349.854" y2="498.146" stroke="#757D91"/>
<line x1="-490.146" y1="-350.854" x2="358.854" y2="498.146" stroke="#757D91"/>
<line x1="-481.146" y1="-350.854" x2="367.854" y2="498.146" stroke="#757D91"/>
<line x1="-472.146" y1="-350.854" x2="376.854" y2="498.146" stroke="#757D91"/>
<line x1="-463.146" y1="-350.854" x2="385.854" y2="498.146" stroke="#757D91"/>
<line x1="-454.146" y1="-350.854" x2="394.854" y2="498.146" stroke="#757D91"/>
<line x1="-445.146" y1="-350.854" x2="403.854" y2="498.146" stroke="#757D91"/>
<line x1="-436.146" y1="-350.854" x2="412.854" y2="498.146" stroke="#757D91"/>
<line x1="-427.146" y1="-350.854" x2="421.854" y2="498.146" stroke="#757D91"/>
<line x1="-418.146" y1="-350.854" x2="430.854" y2="498.146" stroke="#757D91"/>
<line x1="-409.146" y1="-350.854" x2="439.854" y2="498.146" stroke="#757D91"/>
<line x1="-400.146" y1="-350.854" x2="448.854" y2="498.146" stroke="#757D91"/>
<line x1="-391.146" y1="-350.854" x2="457.854" y2="498.146" stroke="#757D91"/>
<line x1="-382.146" y1="-350.854" x2="466.854" y2="498.146" stroke="#757D91"/>
<line x1="-373.146" y1="-350.854" x2="475.854" y2="498.146" stroke="#757D91"/>
<line x1="-364.146" y1="-350.854" x2="484.854" y2="498.146" stroke="#757D91"/>
<line x1="-355.146" y1="-350.854" x2="493.854" y2="498.146" stroke="#757D91"/>
<line x1="-346.146" y1="-350.854" x2="502.854" y2="498.146" stroke="#757D91"/>
<line x1="-337.146" y1="-350.854" x2="511.854" y2="498.146" stroke="#757D91"/>
<line x1="-328.146" y1="-350.854" x2="520.854" y2="498.146" stroke="#757D91"/>
<line x1="-319.146" y1="-350.854" x2="529.854" y2="498.146" stroke="#757D91"/>
<line x1="-310.146" y1="-350.854" x2="538.854" y2="498.146" stroke="#757D91"/>
<line x1="-301.146" y1="-350.854" x2="547.854" y2="498.146" stroke="#757D91"/>
<line x1="-292.146" y1="-350.854" x2="556.854" y2="498.146" stroke="#757D91"/>
<line x1="-283.146" y1="-350.854" x2="565.854" y2="498.146" stroke="#757D91"/>
<line x1="-274.146" y1="-350.854" x2="574.854" y2="498.146" stroke="#757D91"/>
<line x1="-265.146" y1="-350.854" x2="583.854" y2="498.146" stroke="#757D91"/>
<line x1="-256.146" y1="-350.854" x2="592.854" y2="498.146" stroke="#757D91"/>
<line x1="-247.146" y1="-350.854" x2="601.854" y2="498.146" stroke="#757D91"/>
<line x1="-238.146" y1="-350.854" x2="610.854" y2="498.146" stroke="#757D91"/>
<line x1="-229.146" y1="-350.854" x2="619.854" y2="498.146" stroke="#757D91"/>
<line x1="-220.146" y1="-350.854" x2="628.854" y2="498.146" stroke="#757D91"/>
<line x1="-211.146" y1="-350.854" x2="637.854" y2="498.146" stroke="#757D91"/>
<line x1="-202.146" y1="-350.854" x2="646.854" y2="498.146" stroke="#757D91"/>
<line x1="-193.146" y1="-350.854" x2="655.854" y2="498.146" stroke="#757D91"/>
<line x1="-184.146" y1="-350.854" x2="664.854" y2="498.146" stroke="#757D91"/>
<line x1="-175.146" y1="-350.854" x2="673.854" y2="498.146" stroke="#757D91"/>
<line x1="-166.146" y1="-350.854" x2="682.854" y2="498.146" stroke="#757D91"/>
<line x1="-157.146" y1="-350.854" x2="691.854" y2="498.146" stroke="#757D91"/>
<line x1="-148.146" y1="-350.854" x2="700.854" y2="498.146" stroke="#757D91"/>
<line x1="-139.146" y1="-350.854" x2="709.854" y2="498.146" stroke="#757D91"/>
<line x1="-130.146" y1="-350.854" x2="718.854" y2="498.146" stroke="#757D91"/>
<line x1="-121.146" y1="-350.854" x2="727.854" y2="498.146" stroke="#757D91"/>
<line x1="-112.146" y1="-350.854" x2="736.854" y2="498.146" stroke="#757D91"/>
<line x1="-103.146" y1="-350.854" x2="745.854" y2="498.146" stroke="#757D91"/>
<line x1="-94.1464" y1="-350.854" x2="754.854" y2="498.146" stroke="#757D91"/>
<line x1="-85.1464" y1="-350.854" x2="763.854" y2="498.146" stroke="#757D91"/>
<line x1="-76.1464" y1="-350.854" x2="772.854" y2="498.146" stroke="#757D91"/>
<line x1="-67.1464" y1="-350.854" x2="781.854" y2="498.146" stroke="#757D91"/>
<line x1="-58.1464" y1="-350.854" x2="790.854" y2="498.146" stroke="#757D91"/>
<line x1="-49.1464" y1="-350.854" x2="799.854" y2="498.146" stroke="#757D91"/>
<line x1="-40.1464" y1="-350.854" x2="808.854" y2="498.146" stroke="#757D91"/>
<line x1="-31.1464" y1="-350.854" x2="817.854" y2="498.146" stroke="#757D91"/>
<line x1="-22.1464" y1="-350.854" x2="826.854" y2="498.146" stroke="#757D91"/>
<line x1="-13.1464" y1="-350.854" x2="835.854" y2="498.146" stroke="#757D91"/>
<line x1="-4.14645" y1="-350.854" x2="844.854" y2="498.146" stroke="#757D91"/>
<line x1="4.85355" y1="-350.854" x2="853.854" y2="498.146" stroke="#757D91"/>
<line x1="13.8536" y1="-350.854" x2="862.854" y2="498.146" stroke="#757D91"/>
<line x1="22.8536" y1="-350.854" x2="871.854" y2="498.146" stroke="#757D91"/>
<line x1="31.8536" y1="-350.854" x2="880.854" y2="498.146" stroke="#757D91"/>
<line x1="40.8536" y1="-350.854" x2="889.854" y2="498.146" stroke="#757D91"/>
<line x1="49.8536" y1="-350.854" x2="898.854" y2="498.146" stroke="#757D91"/>
<line x1="58.8536" y1="-350.854" x2="907.854" y2="498.146" stroke="#757D91"/>
<line x1="67.8536" y1="-350.854" x2="916.854" y2="498.146" stroke="#757D91"/>
<line x1="76.8536" y1="-350.854" x2="925.854" y2="498.146" stroke="#757D91"/>
<line x1="85.8536" y1="-350.854" x2="934.854" y2="498.146" stroke="#757D91"/>
<line x1="94.8536" y1="-350.854" x2="943.854" y2="498.146" stroke="#757D91"/>
</g>
<g filter="url(#filter3_b_328_2417)">
<circle cx="87" cy="74.0001" r="50" fill="url(#paint4_linear_328_2417)"/>
</g>
<ellipse cx="75.7592" cy="54.1078" rx="35.5" ry="22" transform="rotate(-30.8986 75.7592 54.1078)" fill="url(#paint5_linear_328_2417)"/>
<path fill-rule="evenodd" clip-rule="evenodd" d="M124.148 83.0963C127.297 84.1256 129.016 87.5135 127.987 90.6632C126.754 94.435 124.453 97.964 121.855 100.817C119.262 103.663 116.041 106.201 112.629 107.698C109.594 109.03 106.055 107.649 104.724 104.614C103.393 101.58 104.773 98.0407 107.808 96.7094C109.327 96.0428 111.23 94.661 112.983 92.7361C114.73 90.8183 115.995 88.7268 116.581 86.9357C117.61 83.786 120.998 82.067 124.148 83.0963Z" fill="url(#paint6_linear_328_2417)" fill-opacity="0.6"/>
<circle cx="92" cy="110" r="7" fill="url(#paint7_linear_328_2417)" fill-opacity="0.6"/>
<g opacity="0.16" filter="url(#filter4_f_328_2417)">
<circle cx="62.5" cy="73.5001" r="22.5" fill="#1534EF"/>
</g>
<g opacity="0.16" filter="url(#filter5_f_328_2417)">
<circle cx="106.5" cy="87.5001" r="22.5" fill="#6C2CBE"/>
</g>
<g opacity="0.5" filter="url(#filter6_f_328_2417)">
<ellipse cx="105.09" cy="62.3907" rx="33" ry="25" transform="rotate(51.6014 105.09 62.3907)" fill="white"/>
</g>
<path d="M128 73.5C128 95.5914 110.091 113.5 88 113.5C65.9086 113.5 48 95.5914 48 73.5C48 51.4086 65.9086 33.5 88 33.5C110.091 33.5 128 51.4086 128 73.5ZM68.0198 73.5C68.0198 84.5347 76.9653 93.4802 88 93.4802C99.0347 93.4802 107.98 84.5347 107.98 73.5C107.98 62.4653 99.0347 53.5198 88 53.5198C76.9653 53.5198 68.0198 62.4653 68.0198 73.5Z" fill="black" fill-opacity="0.1"/>
<g filter="url(#filter7_d_328_2417)">
<circle cx="88" cy="73.5" r="24" fill="black"/>
</g>
<defs>
<filter id="filter0_f_328_2417" x="22.4316" y="80.1531" width="145.329" height="88.3708" filterUnits="userSpaceOnUse" color-interpolation-filters="sRGB">
<feFlood flood-opacity="0" result="BackgroundImageFix"/>
<feBlend mode="normal" in="SourceGraphic" in2="BackgroundImageFix" result="shape"/>
<feGaussianBlur stdDeviation="16" result="effect1_foregroundBlur_328_2417"/>
</filter>
<filter id="filter1_dd_328_2417" x="13" y="8.00006" width="164" height="164" filterUnits="userSpaceOnUse" color-interpolation-filters="sRGB">
<feFlood flood-opacity="0" result="BackgroundImageFix"/>
<feColorMatrix in="SourceAlpha" type="matrix" values="0 0 0 0 0 0 0 0 0 0 0 0 0 0 0 0 0 0 127 0" result="hardAlpha"/>
<feOffset dx="8" dy="16"/>
<feGaussianBlur stdDeviation="16"/>
<feComposite in2="hardAlpha" operator="out"/>
<feColorMatrix type="matrix" values="0 0 0 0 0 0 0 0 0 0 0 0 0 0 0 0 0 0 0.16 0"/>
<feBlend mode="normal" in2="BackgroundImageFix" result="effect1_dropShadow_328_2417"/>
<feColorMatrix in="SourceAlpha" type="matrix" values="0 0 0 0 0 0 0 0 0 0 0 0 0 0 0 0 0 0 127 0" result="hardAlpha"/>
<feOffset dx="2" dy="6"/>
<feGaussianBlur stdDeviation="6"/>
<feComposite in2="hardAlpha" operator="out"/>
<feColorMatrix type="matrix" values="0 0 0 0 0 0 0 0 0 0 0 0 0 0 0 0 0 0 0.1 0"/>
<feBlend mode="normal" in2="effect1_dropShadow_328_2417" result="effect2_dropShadow_328_2417"/>
<feBlend mode="normal" in="SourceGraphic" in2="effect2_dropShadow_328_2417" result="shape"/>
</filter>
<filter id="filter2_i_328_2417" x="37" y="24.0001" width="100" height="104" filterUnits="userSpaceOnUse" color-interpolation-filters="sRGB">
<feFlood flood-opacity="0" result="BackgroundImageFix"/>
<feBlend mode="normal" in="SourceGraphic" in2="BackgroundImageFix" result="shape"/>
<feColorMatrix in="SourceAlpha" type="matrix" values="0 0 0 0 0 0 0 0 0 0 0 0 0 0 0 0 0 0 127 0" result="hardAlpha"/>
<feOffset dy="4"/>
<feGaussianBlur stdDeviation="12"/>
<feComposite in2="hardAlpha" operator="arithmetic" k2="-1" k3="1"/>
<feColorMatrix type="matrix" values="0 0 0 0 0 0 0 0 0 0 0 0 0 0 0 0 0 0 0.25 0"/>
<feBlend mode="normal" in2="shape" result="effect1_innerShadow_328_2417"/>
</filter>
<filter id="filter3_b_328_2417" x="33" y="20.0001" width="108" height="108" filterUnits="userSpaceOnUse" color-interpolation-filters="sRGB">
<feFlood flood-opacity="0" result="BackgroundImageFix"/>
<feGaussianBlur in="BackgroundImage" stdDeviation="2"/>
<feComposite in2="SourceAlpha" operator="in" result="effect1_backgroundBlur_328_2417"/>
<feBlend mode="normal" in="SourceGraphic" in2="effect1_backgroundBlur_328_2417" result="shape"/>
</filter>
<filter id="filter4_f_328_2417" x="8" y="19.0001" width="109" height="109" filterUnits="userSpaceOnUse" color-interpolation-filters="sRGB">
<feFlood flood-opacity="0" result="BackgroundImageFix"/>
<feBlend mode="normal" in="SourceGraphic" in2="BackgroundImageFix" result="shape"/>
<feGaussianBlur stdDeviation="16" result="effect1_foregroundBlur_328_2417"/>
</filter>
<filter id="filter5_f_328_2417" x="52" y="33.0001" width="109" height="109" filterUnits="userSpaceOnUse" color-interpolation-filters="sRGB">
<feFlood flood-opacity="0" result="BackgroundImageFix"/>
<feBlend mode="normal" in="SourceGraphic" in2="BackgroundImageFix" result="shape"/>
<feGaussianBlur stdDeviation="16" result="effect1_foregroundBlur_328_2417"/>
</filter>
<filter id="filter6_f_328_2417" x="44.7354" y="0.220093" width="120.71" height="124.341" filterUnits="userSpaceOnUse" color-interpolation-filters="sRGB">
<feFlood flood-opacity="0" result="BackgroundImageFix"/>
<feBlend mode="normal" in="SourceGraphic" in2="BackgroundImageFix" result="shape"/>
<feGaussianBlur stdDeviation="16" result="effect1_foregroundBlur_328_2417"/>
</filter>
<filter id="filter7_d_328_2417" x="48" y="41.5" width="80" height="80" filterUnits="userSpaceOnUse" color-interpolation-filters="sRGB">
<feFlood flood-opacity="0" result="BackgroundImageFix"/>
<feColorMatrix in="SourceAlpha" type="matrix" values="0 0 0 0 0 0 0 0 0 0 0 0 0 0 0 0 0 0 127 0" result="hardAlpha"/>
<feOffset dy="8"/>
<feGaussianBlur stdDeviation="8"/>
<feComposite in2="hardAlpha" operator="out"/>
<feColorMatrix type="matrix" values="0 0 0 0 0 0 0 0 0 0 0 0 0 0 0 0 0 0 0.4 0"/>
<feBlend mode="normal" in2="BackgroundImageFix" result="effect1_dropShadow_328_2417"/>
<feBlend mode="normal" in="SourceGraphic" in2="effect1_dropShadow_328_2417" result="shape"/>
</filter>
<linearGradient id="paint0_linear_328_2417" x1="164" y1="74" x2="176" y2="74" gradientUnits="userSpaceOnUse">
<stop stop-color="#6C2CBE"/>
<stop offset="1" stop-color="#1534EF"/>
</linearGradient>
<linearGradient id="paint1_linear_328_2417" x1="164" y1="72.5" x2="145" y2="72.5" gradientUnits="userSpaceOnUse">
<stop stop-color="#6C2CBE"/>
<stop offset="1" stop-color="#1534EF"/>
</linearGradient>
<linearGradient id="paint2_linear_328_2417" x1="87" y1="132" x2="87" y2="16" gradientUnits="userSpaceOnUse">
<stop stop-color="#6C2CBE"/>
<stop offset="1" stop-color="#1534EF"/>
</linearGradient>
<linearGradient id="paint3_linear_328_2417" x1="60" y1="31.5001" x2="113" y2="117" gradientUnits="userSpaceOnUse">
<stop stop-color="#D9D9D9"/>
<stop offset="0.0001" stop-color="#E6E6E6"/>
<stop offset="1" stop-color="#E6E6E6" stop-opacity="0"/>
</linearGradient>
<linearGradient id="paint4_linear_328_2417" x1="60" y1="32.0001" x2="117.5" y2="117.5" gradientUnits="userSpaceOnUse">
<stop stop-color="white"/>
<stop offset="0.0001" stop-color="#FFFEFE"/>
<stop offset="1" stop-color="white" stop-opacity="0"/>
</linearGradient>
<linearGradient id="paint5_linear_328_2417" x1="74.3762" y1="40.3352" x2="70.5705" y2="58.9008" gradientUnits="userSpaceOnUse">
<stop stop-color="white"/>
<stop offset="0.0001" stop-color="#FFFEFE"/>
<stop offset="1" stop-color="white" stop-opacity="0"/>
</linearGradient>
<linearGradient id="paint6_linear_328_2417" x1="125.414" y1="92.6985" x2="116.061" y2="87.387" gradientUnits="userSpaceOnUse">
<stop stop-color="white"/>
<stop offset="0.0001" stop-color="#FFFEFE"/>
<stop offset="1" stop-color="white" stop-opacity="0"/>
</linearGradient>
<linearGradient id="paint7_linear_328_2417" x1="96.6667" y1="115.25" x2="94.7928" y2="104.981" gradientUnits="userSpaceOnUse">
<stop stop-color="white"/>
<stop offset="0.0001" stop-color="#FFFEFE"/>
<stop offset="1" stop-color="white" stop-opacity="0"/>
</linearGradient>
<clipPath id="clip0_328_2417">
<path d="M37 74.0001C37 46.3858 59.3858 24.0001 87 24.0001C114.614 24.0001 137 46.3858 137 74.0001C137 101.614 114.614 124 87 124C59.3858 124 37 101.614 37 74.0001Z" fill="white"/>
</clipPath>
</defs>
</svg>
