<svg width="84" height="80" viewBox="0 0 84 80" fill="none" xmlns="http://www.w3.org/2000/svg">
<g filter="url(#filter0_i_14_1292)">
<path d="M44 80C66.0914 80 84 62.0914 84 40C84 17.9086 66.0914 0 44 0C21.9086 0 4 17.9086 4 40C4 62.0914 21.9086 80 44 80Z" fill="#627EEA"/>
</g>
<path d="M45.2451 10V32.175L63.9876 40.55L45.2451 10Z" fill="white" fill-opacity="0.602"/>
<path d="M45.245 10L26.5 40.55L45.245 32.175V10Z" fill="white"/>
<path d="M45.2451 54.92V69.9875L64.0001 44.04L45.2451 54.92Z" fill="white" fill-opacity="0.602"/>
<path d="M45.245 69.9875V54.9175L26.5 44.04L45.245 69.9875Z" fill="white"/>
<path d="M45.2451 51.4325L63.9876 40.55L45.2451 32.18V51.4325Z" fill="white" fill-opacity="0.2"/>
<path d="M26.5 40.55L45.245 51.4325V32.18L26.5 40.55Z" fill="white" fill-opacity="0.602"/>
<rect width="32" height="32" rx="16" fill="black"/>
<path fill-rule="evenodd" clip-rule="evenodd" d="M16.7076 9.2402C17.5191 8.43542 18.6061 7.9901 19.7343 8.00017C20.8626 8.01023 21.9418 8.47488 22.7397 9.29402C23.5375 10.1132 23.99 11.2213 23.9998 12.3797C24.0096 13.5381 23.5759 14.6541 22.7921 15.4873L22.7833 15.4965L20.6319 17.7054C20.1957 18.1535 19.6707 18.5 19.0926 18.7214C18.5145 18.9428 17.8967 19.034 17.2813 18.9887C16.6658 18.9435 16.067 18.7628 15.5255 18.4591C14.9841 18.1553 14.5125 17.7356 14.1429 17.2283C13.9057 16.9026 13.9705 16.4412 14.2876 16.1976C14.6048 15.954 15.0543 16.0205 15.2915 16.3462C15.5379 16.6844 15.8523 16.9642 16.2132 17.1667C16.5742 17.3692 16.9734 17.4896 17.3837 17.5198C17.794 17.55 18.2059 17.4892 18.5913 17.3416C18.9767 17.1939 19.3267 16.963 19.6175 16.6643L21.7645 14.4599C22.2844 13.9049 22.5721 13.1627 22.5655 12.3925C22.559 11.6202 22.2573 10.8815 21.7254 10.3354C21.1936 9.78927 20.474 9.47951 19.7219 9.4728C18.9714 9.4661 18.2482 9.76168 17.7076 10.296L16.4779 11.5512C16.197 11.8379 15.7429 11.8365 15.4637 11.5481C15.1844 11.2598 15.1857 10.7935 15.4666 10.5068L16.7002 9.24766L16.7076 9.2402Z" fill="white"/>
<path fill-rule="evenodd" clip-rule="evenodd" d="M12.9074 13.2786C13.4855 13.0572 14.1033 12.966 14.7187 13.0113C15.3342 13.0565 15.933 13.2372 16.4745 13.5409C17.0159 13.8447 17.4875 14.2644 17.8571 14.7717C18.0943 15.0974 18.0295 15.5588 17.7124 15.8024C17.3952 16.046 16.9457 15.9795 16.7085 15.6538C16.4621 15.3156 16.1477 15.0358 15.7868 14.8333C15.4258 14.6308 15.0266 14.5104 14.6163 14.4802C14.206 14.45 13.7941 14.5108 13.4087 14.6584C13.0233 14.8061 12.6733 15.037 12.3825 15.3357L10.2355 17.5401C9.71556 18.0951 9.42794 18.8373 9.43446 19.6075C9.44099 20.3798 9.74269 21.1185 10.2746 21.6646C10.8064 22.2107 11.526 22.5205 12.2781 22.5272C13.0283 22.5339 13.7511 22.2386 14.2917 21.7047L15.5134 20.4503C15.7935 20.1628 16.2476 20.1628 16.5277 20.4503C16.8077 20.7379 16.8077 21.2041 16.5277 21.4917L15.3013 22.7508L15.2924 22.7598C14.4809 23.5646 13.3939 24.0099 12.2657 23.9998C11.1374 23.9898 10.0582 23.5251 9.26033 22.706C8.46251 21.8868 8.00997 20.7787 8.00016 19.6203C7.99036 18.4619 8.42408 17.3459 9.20792 16.5127L9.21665 16.5035L11.3681 14.2946C11.3681 14.2946 11.3681 14.2946 11.3681 14.2946C11.8043 13.8466 12.3293 13.5 12.9074 13.2786Z" fill="white"/>
<defs>
<filter id="filter0_i_14_1292" x="4" y="0" width="80" height="82" filterUnits="userSpaceOnUse" color-interpolation-filters="sRGB">
<feFlood flood-opacity="0" result="BackgroundImageFix"/>
<feBlend mode="normal" in="SourceGraphic" in2="BackgroundImageFix" result="shape"/>
<feColorMatrix in="SourceAlpha" type="matrix" values="0 0 0 0 0 0 0 0 0 0 0 0 0 0 0 0 0 0 127 0" result="hardAlpha"/>
<feOffset dy="2"/>
<feGaussianBlur stdDeviation="2"/>
<feComposite in2="hardAlpha" operator="arithmetic" k2="-1" k3="1"/>
<feColorMatrix type="matrix" values="0 0 0 0 0 0 0 0 0 0 0 0 0 0 0 0 0 0 0.06 0"/>
<feBlend mode="normal" in2="shape" result="effect1_innerShadow_14_1292"/>
</filter>
</defs>
</svg>
