<svg width="80" height="80" viewBox="0 0 80 80" fill="none" xmlns="http://www.w3.org/2000/svg">
<g filter="url(#filter0_i_3_68)">
<path d="M40 80C62.0914 80 80 62.0914 80 40C80 17.9086 62.0914 0 40 0C17.9086 0 0 17.9086 0 40C0 62.0914 17.9086 80 40 80Z" fill="#627EEA"/>
</g>
<path d="M41.245 10V32.175L59.9875 40.55L41.245 10Z" fill="white" fill-opacity="0.602"/>
<path d="M41.245 10L22.5 40.55L41.245 32.175V10Z" fill="white"/>
<path d="M41.245 54.92V69.9875L60 44.04L41.245 54.92Z" fill="white" fill-opacity="0.602"/>
<path d="M41.245 69.9875V54.9175L22.5 44.04L41.245 69.9875Z" fill="white"/>
<path d="M41.245 51.4325L59.9875 40.55L41.245 32.18V51.4325Z" fill="white" fill-opacity="0.2"/>
<path d="M22.5 40.55L41.245 51.4325V32.18L22.5 40.55Z" fill="white" fill-opacity="0.602"/>
<defs>
<filter id="filter0_i_3_68" x="0" y="0" width="80" height="82" filterUnits="userSpaceOnUse" color-interpolation-filters="sRGB">
<feFlood flood-opacity="0" result="BackgroundImageFix"/>
<feBlend mode="normal" in="SourceGraphic" in2="BackgroundImageFix" result="shape"/>
<feColorMatrix in="SourceAlpha" type="matrix" values="0 0 0 0 0 0 0 0 0 0 0 0 0 0 0 0 0 0 127 0" result="hardAlpha"/>
<feOffset dy="2"/>
<feGaussianBlur stdDeviation="2"/>
<feComposite in2="hardAlpha" operator="arithmetic" k2="-1" k3="1"/>
<feColorMatrix type="matrix" values="0 0 0 0 0 0 0 0 0 0 0 0 0 0 0 0 0 0 0.06 0"/>
<feBlend mode="normal" in2="shape" result="effect1_innerShadow_3_68"/>
</filter>
</defs>
</svg>
