<svg width="359" height="40" viewBox="0 0 359 40" fill="none" xmlns="http://www.w3.org/2000/svg">
<path fill-rule="evenodd" clip-rule="evenodd" d="M5.64543 4H0V36C1.87883 35.7219 3.76066 35.453 5.64543 35.1933V24.8236C5.64543 21.384 7.95913 18.5487 11.2909 18.5487C14.2987 18.5487 16.4735 20.315 16.4735 24.4983V33.8064C18.3526 33.5839 20.2344 33.3706 22.119 33.1665V24.4518C22.119 17.712 19.25 13.2963 12.7716 13.2963C10.1803 13.2963 7.68148 14.0865 5.64543 16.7359V4ZM59.0341 30.3676C57.1499 30.4497 55.268 30.5409 53.3886 30.6412V13.5752H58.6176L59.0341 16.3641C60.2372 14.04 62.8748 13.2033 65.0497 13.2033C67.7799 13.2033 70.51 14.3189 71.8057 17.4796C73.8418 14.2259 76.4794 13.2963 79.4409 13.2963C85.9193 13.2963 89.1122 17.2937 89.1122 24.1729V29.8373C87.5174 29.8242 85.9211 29.8176 84.3232 29.8176C84.0377 29.8176 83.7522 29.8178 83.4668 29.8183V24.1729C83.4668 21.1516 82.2174 18.5952 79.1633 18.5952C76.1092 18.5952 74.2119 21.2446 74.2119 24.2659V29.9053C72.3279 29.9381 70.4461 29.9799 68.5665 30.0308V24.2659C68.5665 21.2446 66.9932 18.5022 63.8928 18.5022C60.8388 18.5022 59.0341 21.2446 59.0341 24.2659V30.3676ZM117.981 30.7931V13.6216H112.567L112.382 16.7823C111.087 14.5047 108.171 13.0638 105.117 13.0638C98.4537 13.0173 93.2248 17.1542 93.2248 25.056C93.2248 26.8667 93.4782 28.4819 93.948 29.8971C96.2058 29.9344 98.4604 29.9848 100.712 30.0483C99.5686 28.8567 98.8702 27.1614 98.8702 25.056C98.8702 20.6868 101.878 18.1303 105.626 18.1303C112.608 18.1303 114.103 26.7137 110.111 30.3895C112.739 30.5063 115.363 30.6409 117.981 30.7931ZM127.832 31.4503C125.968 31.3099 124.102 31.1784 122.233 31.0559V13.5751H127.277L127.647 16.6894C129.961 14.4118 132.274 13.2497 135.143 13.2497C140.511 13.2497 144.814 17.2936 144.814 24.4982V32.9835C142.935 32.7857 141.054 32.5969 139.169 32.4173V24.5447C139.169 21.0586 137.272 18.4092 133.662 18.4092C130.192 18.4092 127.832 21.3375 127.832 24.8236V31.4503ZM165.366 35.5242C159.655 34.7128 153.916 33.9859 148.152 33.3448C148.117 33.3091 148.083 33.2731 148.048 33.2367L150.824 29.1929C152.444 31.0056 156.146 32.3536 158.691 32.4001C160.82 32.4466 162.809 31.331 162.809 29.6577C162.809 28.0773 161.514 27.4266 158.274 27.2406C153.971 26.9153 148.835 25.3349 148.835 20.129C148.835 14.8301 154.295 12.9709 158.46 12.9709C162.023 12.9709 164.707 13.6681 167.344 15.9922L164.198 19.7107C162.578 18.1768 160.727 17.6655 158.552 17.6655C155.868 17.6655 154.387 18.5021 154.387 19.9431C154.387 21.4305 155.729 22.2671 158.645 22.4531C162.948 22.732 168.408 23.7081 168.408 29.7971C168.408 32.0468 167.392 34.1239 165.366 35.5242ZM48.767 30.9065C46.2533 31.0609 43.744 31.2316 41.2392 31.4185C42.456 30.233 43.1679 28.4866 43.1679 26.572V13.6216H48.767V30.9065ZM34.0563 31.9995C31.7884 32.1973 29.5243 32.4084 27.2641 32.6326C26.5699 31.0316 26.1853 29.1082 26.1853 26.8974V13.6216H31.8307V26.8509C31.8307 29.0535 32.5881 30.9222 34.0563 31.9995Z" fill="#F2F2F2"/>
<line x1="186" y1="4.37114e-08" x2="186" y2="40" stroke="url(#paint0_linear_1_39)" stroke-width="2"/>
<path d="M223.133 29C227.581 29 230.013 26.632 230.013 22.888C230.013 19.912 228.285 18.248 225.821 17.48C228.029 16.392 228.925 14.376 228.925 12.296C228.925 9.16 227.005 6.6 222.077 6.6H204.157V29H223.133ZM206.013 8.296H221.629C225.085 8.296 226.973 9.576 226.973 12.52C226.973 15.848 224.445 16.808 221.629 16.808H206.013V8.296ZM206.013 18.536H222.717C225.533 18.536 228.029 19.496 228.029 22.856C228.029 26.024 226.173 27.304 222.717 27.304H206.013V18.536ZM254.659 18.824C257.187 17.896 258.467 16.008 258.467 13.032C258.467 8.648 255.619 6.6 250.115 6.6H234.755V29H236.611V20.136H252.867C255.139 20.136 256.291 21.064 256.291 23.208V29H258.147V22.888C258.147 20.584 256.803 19.144 254.659 18.824ZM249.795 8.296C253.891 8.296 256.515 9.256 256.515 13.256C256.515 17.256 253.891 18.408 249.795 18.408H236.611V8.296H249.795ZM264.196 6.6V29H266.052V6.6H264.196ZM272.075 6.6V29H286.155C292.203 29 297.483 25.416 297.483 17.8C297.483 10.184 292.203 6.6 286.155 6.6H272.075ZM273.931 8.296H285.291C291.723 8.296 295.531 11.4 295.531 17.8C295.531 24.2 291.723 27.304 285.291 27.304H273.931V8.296ZM302.227 17.8C302.227 24.968 307.731 29.64 315.859 29.64C320.947 29.64 324.339 28.488 328.563 26.088V18.184H315.443V19.912H326.611V25.288C323.219 27.048 320.531 27.944 315.859 27.944C307.091 27.944 304.179 22.216 304.179 17.8C304.179 13.384 307.123 7.656 315.891 7.656C323.123 7.656 326.131 11.592 326.611 14.568H328.563C327.891 10.216 323.859 5.96 315.891 5.96C307.731 5.96 302.227 10.632 302.227 17.8ZM334.207 6.6V29H356.159V27.304H336.063V18.664H355.519V16.936H336.063V8.296H356.159V6.6H334.207Z" fill="white"/>
<defs>
<linearGradient id="paint0_linear_1_39" x1="184.5" y1="-2.18557e-08" x2="184.5" y2="40" gradientUnits="userSpaceOnUse">
<stop stop-color="#6C2CBE"/>
<stop offset="1" stop-color="#1534EF"/>
</linearGradient>
</defs>
</svg>
