<svg width="177" height="173" viewBox="0 0 177 173" fill="none" xmlns="http://www.w3.org/2000/svg">
<path d="M0 86.5C3.1826 86.5 6.23484 85.2357 8.48528 82.9853C10.7357 80.7348 12 77.6826 12 74.5C12 71.3174 10.7357 68.2652 8.48528 66.0147C6.23485 63.7643 3.1826 62.5 2.86102e-06 62.5L0 86.5Z" fill="#627EEA"/>
<line x1="12" y1="74.5" x2="29" y2="74.5" stroke="#627EEA" stroke-width="2"/>
<path d="M87 132.5C79.3833 132.5 71.8412 131 64.8044 128.085C57.7675 125.17 51.3736 120.898 45.9878 115.512C40.602 110.126 36.3298 103.733 33.415 96.6956C30.5002 89.6587 29 82.1167 29 74.5C29 66.8833 30.5002 59.3412 33.415 52.3044C36.3298 45.2675 40.602 38.8736 45.9878 33.4878C51.3736 28.102 57.7675 23.8298 64.8044 20.915C71.8412 18.0002 79.3833 16.5 87 16.5" stroke="#627EEA" stroke-width="2" stroke-linecap="round" stroke-linejoin="round"/>
<path d="M176 62.5C172.817 62.5 169.765 63.7643 167.515 66.0147C165.264 68.2652 164 71.3174 164 74.5C164 77.6826 165.264 80.7349 167.515 82.9853C169.765 85.2357 172.817 86.5 176 86.5L176 62.5Z" fill="url(#paint0_linear_6_810)"/>
<line x1="164" y1="74.5" x2="145" y2="74.5" stroke="url(#paint1_linear_6_810)" stroke-width="2"/>
<path d="M87 16.5C94.6167 16.5 102.159 18.0002 109.196 20.915C116.233 23.8298 122.626 28.102 128.012 33.4878C133.398 38.8736 137.67 45.2675 140.585 52.3044C143.5 59.3413 145 66.8833 145 74.5C145 82.1167 143.5 89.6588 140.585 96.6956C137.67 103.733 133.398 110.126 128.012 115.512C122.626 120.898 116.233 125.17 109.196 128.085C102.159 131 94.6167 132.5 87 132.5" stroke="url(#paint2_linear_6_810)" stroke-width="2" stroke-linecap="round" stroke-linejoin="round"/>
<g filter="url(#filter0_f_6_810)">
<ellipse cx="95.0964" cy="124.839" rx="41" ry="11" transform="rotate(-7.61849 95.0964 124.839)" fill="#0A0845" fill-opacity="0.6"/>
</g>
<g filter="url(#filter1_dd_6_810)">
<circle cx="87" cy="74.5" r="50" fill="white"/>
</g>
<g filter="url(#filter2_i_6_810)">
<circle cx="87" cy="74.5" r="50" fill="url(#paint3_linear_6_810)"/>
</g>
<g clip-path="url(#clip0_6_810)">
<line x1="-769.146" y1="-350.354" x2="79.8536" y2="498.646" stroke="#757D91"/>
<line x1="-760.146" y1="-350.354" x2="88.8536" y2="498.646" stroke="#757D91"/>
<line x1="-751.146" y1="-350.354" x2="97.8536" y2="498.646" stroke="#757D91"/>
<line x1="-742.146" y1="-350.354" x2="106.854" y2="498.646" stroke="#757D91"/>
<line x1="-733.146" y1="-350.354" x2="115.854" y2="498.646" stroke="#757D91"/>
<line x1="-724.146" y1="-350.354" x2="124.854" y2="498.646" stroke="#757D91"/>
<line x1="-715.146" y1="-350.354" x2="133.854" y2="498.646" stroke="#757D91"/>
<line x1="-706.146" y1="-350.354" x2="142.854" y2="498.646" stroke="#757D91"/>
<line x1="-697.146" y1="-350.354" x2="151.854" y2="498.646" stroke="#757D91"/>
<line x1="-688.146" y1="-350.354" x2="160.854" y2="498.646" stroke="#757D91"/>
<line x1="-679.146" y1="-350.354" x2="169.854" y2="498.646" stroke="#757D91"/>
<line x1="-670.146" y1="-350.354" x2="178.854" y2="498.646" stroke="#757D91"/>
<line x1="-661.146" y1="-350.354" x2="187.854" y2="498.646" stroke="#757D91"/>
<line x1="-652.146" y1="-350.354" x2="196.854" y2="498.646" stroke="#757D91"/>
<line x1="-643.146" y1="-350.354" x2="205.854" y2="498.646" stroke="#757D91"/>
<line x1="-634.146" y1="-350.354" x2="214.854" y2="498.646" stroke="#757D91"/>
<line x1="-625.146" y1="-350.354" x2="223.854" y2="498.646" stroke="#757D91"/>
<line x1="-616.146" y1="-350.354" x2="232.854" y2="498.646" stroke="#757D91"/>
<line x1="-607.146" y1="-350.354" x2="241.854" y2="498.646" stroke="#757D91"/>
<line x1="-598.146" y1="-350.354" x2="250.854" y2="498.646" stroke="#757D91"/>
<line x1="-589.146" y1="-350.354" x2="259.854" y2="498.646" stroke="#757D91"/>
<line x1="-580.146" y1="-350.354" x2="268.854" y2="498.646" stroke="#757D91"/>
<line x1="-571.146" y1="-350.354" x2="277.854" y2="498.646" stroke="#757D91"/>
<line x1="-562.146" y1="-350.354" x2="286.854" y2="498.646" stroke="#757D91"/>
<line x1="-553.146" y1="-350.354" x2="295.854" y2="498.646" stroke="#757D91"/>
<line x1="-544.146" y1="-350.354" x2="304.854" y2="498.646" stroke="#757D91"/>
<line x1="-535.146" y1="-350.354" x2="313.854" y2="498.646" stroke="#757D91"/>
<line x1="-526.146" y1="-350.354" x2="322.854" y2="498.646" stroke="#757D91"/>
<line x1="-517.146" y1="-350.354" x2="331.854" y2="498.646" stroke="#757D91"/>
<line x1="-508.146" y1="-350.354" x2="340.854" y2="498.646" stroke="#757D91"/>
<line x1="-499.146" y1="-350.354" x2="349.854" y2="498.646" stroke="#757D91"/>
<line x1="-490.146" y1="-350.354" x2="358.854" y2="498.646" stroke="#757D91"/>
<line x1="-481.146" y1="-350.354" x2="367.854" y2="498.646" stroke="#757D91"/>
<line x1="-472.146" y1="-350.354" x2="376.854" y2="498.646" stroke="#757D91"/>
<line x1="-463.146" y1="-350.354" x2="385.854" y2="498.646" stroke="#757D91"/>
<line x1="-454.146" y1="-350.354" x2="394.854" y2="498.646" stroke="#757D91"/>
<line x1="-445.146" y1="-350.354" x2="403.854" y2="498.646" stroke="#757D91"/>
<line x1="-436.146" y1="-350.354" x2="412.854" y2="498.646" stroke="#757D91"/>
<line x1="-427.146" y1="-350.354" x2="421.854" y2="498.646" stroke="#757D91"/>
<line x1="-418.146" y1="-350.354" x2="430.854" y2="498.646" stroke="#757D91"/>
<line x1="-409.146" y1="-350.354" x2="439.854" y2="498.646" stroke="#757D91"/>
<line x1="-400.146" y1="-350.354" x2="448.854" y2="498.646" stroke="#757D91"/>
<line x1="-391.146" y1="-350.354" x2="457.854" y2="498.646" stroke="#757D91"/>
<line x1="-382.146" y1="-350.354" x2="466.854" y2="498.646" stroke="#757D91"/>
<line x1="-373.146" y1="-350.354" x2="475.854" y2="498.646" stroke="#757D91"/>
<line x1="-364.146" y1="-350.354" x2="484.854" y2="498.646" stroke="#757D91"/>
<line x1="-355.146" y1="-350.354" x2="493.854" y2="498.646" stroke="#757D91"/>
<line x1="-346.146" y1="-350.354" x2="502.854" y2="498.646" stroke="#757D91"/>
<line x1="-337.146" y1="-350.354" x2="511.854" y2="498.646" stroke="#757D91"/>
<line x1="-328.146" y1="-350.354" x2="520.854" y2="498.646" stroke="#757D91"/>
<line x1="-319.146" y1="-350.354" x2="529.854" y2="498.646" stroke="#757D91"/>
<line x1="-310.146" y1="-350.354" x2="538.854" y2="498.646" stroke="#757D91"/>
<line x1="-301.146" y1="-350.354" x2="547.854" y2="498.646" stroke="#757D91"/>
<line x1="-292.146" y1="-350.354" x2="556.854" y2="498.646" stroke="#757D91"/>
<line x1="-283.146" y1="-350.354" x2="565.854" y2="498.646" stroke="#757D91"/>
<line x1="-274.146" y1="-350.354" x2="574.854" y2="498.646" stroke="#757D91"/>
<line x1="-265.146" y1="-350.354" x2="583.854" y2="498.646" stroke="#757D91"/>
<line x1="-256.146" y1="-350.354" x2="592.854" y2="498.646" stroke="#757D91"/>
<line x1="-247.146" y1="-350.354" x2="601.854" y2="498.646" stroke="#757D91"/>
<line x1="-238.146" y1="-350.354" x2="610.854" y2="498.646" stroke="#757D91"/>
<line x1="-229.146" y1="-350.354" x2="619.854" y2="498.646" stroke="#757D91"/>
<line x1="-220.146" y1="-350.354" x2="628.854" y2="498.646" stroke="#757D91"/>
<line x1="-211.146" y1="-350.354" x2="637.854" y2="498.646" stroke="#757D91"/>
<line x1="-202.146" y1="-350.354" x2="646.854" y2="498.646" stroke="#757D91"/>
<line x1="-193.146" y1="-350.354" x2="655.854" y2="498.646" stroke="#757D91"/>
<line x1="-184.146" y1="-350.354" x2="664.854" y2="498.646" stroke="#757D91"/>
<line x1="-175.146" y1="-350.354" x2="673.854" y2="498.646" stroke="#757D91"/>
<line x1="-166.146" y1="-350.354" x2="682.854" y2="498.646" stroke="#757D91"/>
<line x1="-157.146" y1="-350.354" x2="691.854" y2="498.646" stroke="#757D91"/>
<line x1="-148.146" y1="-350.354" x2="700.854" y2="498.646" stroke="#757D91"/>
<line x1="-139.146" y1="-350.354" x2="709.854" y2="498.646" stroke="#757D91"/>
<line x1="-130.146" y1="-350.354" x2="718.854" y2="498.646" stroke="#757D91"/>
<line x1="-121.146" y1="-350.354" x2="727.854" y2="498.646" stroke="#757D91"/>
<line x1="-112.146" y1="-350.354" x2="736.854" y2="498.646" stroke="#757D91"/>
<line x1="-103.146" y1="-350.354" x2="745.854" y2="498.646" stroke="#757D91"/>
<line x1="-94.1464" y1="-350.354" x2="754.854" y2="498.646" stroke="#757D91"/>
<line x1="-85.1464" y1="-350.354" x2="763.854" y2="498.646" stroke="#757D91"/>
<line x1="-76.1464" y1="-350.354" x2="772.854" y2="498.646" stroke="#757D91"/>
<line x1="-67.1464" y1="-350.354" x2="781.854" y2="498.646" stroke="#757D91"/>
<line x1="-58.1464" y1="-350.354" x2="790.854" y2="498.646" stroke="#757D91"/>
<line x1="-49.1464" y1="-350.354" x2="799.854" y2="498.646" stroke="#757D91"/>
<line x1="-40.1464" y1="-350.354" x2="808.854" y2="498.646" stroke="#757D91"/>
<line x1="-31.1464" y1="-350.354" x2="817.854" y2="498.646" stroke="#757D91"/>
<line x1="-22.1464" y1="-350.354" x2="826.854" y2="498.646" stroke="#757D91"/>
<line x1="-13.1464" y1="-350.354" x2="835.854" y2="498.646" stroke="#757D91"/>
<line x1="-4.14645" y1="-350.354" x2="844.854" y2="498.646" stroke="#757D91"/>
<line x1="4.85355" y1="-350.354" x2="853.854" y2="498.646" stroke="#757D91"/>
<line x1="13.8536" y1="-350.354" x2="862.854" y2="498.646" stroke="#757D91"/>
<line x1="22.8536" y1="-350.354" x2="871.854" y2="498.646" stroke="#757D91"/>
<line x1="31.8536" y1="-350.354" x2="880.854" y2="498.646" stroke="#757D91"/>
<line x1="40.8536" y1="-350.354" x2="889.854" y2="498.646" stroke="#757D91"/>
<line x1="49.8536" y1="-350.354" x2="898.854" y2="498.646" stroke="#757D91"/>
<line x1="58.8536" y1="-350.354" x2="907.854" y2="498.646" stroke="#757D91"/>
<line x1="67.8536" y1="-350.354" x2="916.854" y2="498.646" stroke="#757D91"/>
<line x1="76.8536" y1="-350.354" x2="925.854" y2="498.646" stroke="#757D91"/>
<line x1="85.8536" y1="-350.354" x2="934.854" y2="498.646" stroke="#757D91"/>
<line x1="94.8536" y1="-350.354" x2="943.854" y2="498.646" stroke="#757D91"/>
</g>
<rect x="67" y="59.5" width="40" height="40" rx="20" fill="#1534EF"/>
<path fill-rule="evenodd" clip-rule="evenodd" d="M87.7071 71.7929C87.3166 71.4024 86.6834 71.4024 86.2929 71.7929C85.9024 72.1834 85.9024 72.8166 86.2929 73.2071L91.5858 78.5H80C79.4477 78.5 79 78.9477 79 79.5C79 80.0523 79.4477 80.5 80 80.5H91.5858L86.2929 85.7929C85.9024 86.1834 85.9024 86.8166 86.2929 87.2071C86.6834 87.5977 87.3166 87.5977 87.7071 87.2071L94.7064 80.2079C94.7088 80.2054 94.7112 80.203 94.7136 80.2006C94.8901 80.0208 94.9992 79.7747 95 79.503C95 79.502 95 79.501 95 79.5C95 79.499 95 79.498 95 79.497C94.9996 79.3625 94.9727 79.2343 94.9241 79.1172C94.8764 79.002 94.8063 78.8938 94.7136 78.7995C94.7112 78.7971 94.7089 78.7947 94.7065 78.7923M87.7071 71.7929L94.7065 78.7923L87.7071 71.7929Z" fill="white"/>
<g filter="url(#filter3_b_6_810)">
<circle cx="87" cy="74.5" r="50" fill="url(#paint4_linear_6_810)"/>
</g>
<rect x="67" y="54.5" width="40" height="40" rx="20" fill="#1534EF"/>
<path fill-rule="evenodd" clip-rule="evenodd" d="M87.7071 66.7929C87.3166 66.4024 86.6834 66.4024 86.2929 66.7929C85.9024 67.1834 85.9024 67.8166 86.2929 68.2071L91.5858 73.5H80C79.4477 73.5 79 73.9477 79 74.5C79 75.0523 79.4477 75.5 80 75.5H91.5858L86.2929 80.7929C85.9024 81.1834 85.9024 81.8166 86.2929 82.2071C86.6834 82.5977 87.3166 82.5977 87.7071 82.2071L94.7064 75.2079C94.7088 75.2054 94.7112 75.203 94.7136 75.2006C94.8901 75.0208 94.9992 74.7747 95 74.503C95 74.502 95 74.501 95 74.5C95 74.499 95 74.498 95 74.497C94.9996 74.3625 94.9727 74.2343 94.9241 74.1172C94.8764 74.002 94.8063 73.8938 94.7136 73.7995C94.7112 73.7971 94.7089 73.7947 94.7065 73.7923M87.7071 66.7929L94.7065 73.7923L87.7071 66.7929Z" fill="white"/>
<ellipse cx="75.7592" cy="54.6077" rx="35.5" ry="22" transform="rotate(-30.8986 75.7592 54.6077)" fill="url(#paint5_linear_6_810)"/>
<path fill-rule="evenodd" clip-rule="evenodd" d="M124.148 83.5963C127.298 84.6256 129.017 88.0134 127.988 91.1632C126.755 94.935 124.453 98.464 121.855 101.317C119.263 104.162 116.042 106.701 112.629 108.198C109.595 109.53 106.056 108.149 104.725 105.114C103.393 102.08 104.774 98.5406 107.808 97.2094C109.328 96.5428 111.23 95.161 112.984 93.2361C114.73 91.3183 115.996 89.2268 116.581 87.4357C117.61 84.2859 120.998 82.567 124.148 83.5963Z" fill="url(#paint6_linear_6_810)" fill-opacity="0.6"/>
<circle cx="92" cy="110.5" r="7" fill="url(#paint7_linear_6_810)" fill-opacity="0.6"/>
<g opacity="0.16" filter="url(#filter4_f_6_810)">
<circle cx="62.5" cy="74" r="22.5" fill="#1534EF"/>
</g>
<g opacity="0.16" filter="url(#filter5_f_6_810)">
<circle cx="106.5" cy="88" r="22.5" fill="#6C2CBE"/>
</g>
<g opacity="0.5" filter="url(#filter6_f_6_810)">
<ellipse cx="105.09" cy="62.8906" rx="33" ry="25" transform="rotate(51.6014 105.09 62.8906)" fill="white"/>
</g>
<g filter="url(#filter7_f_6_810)">
<path d="M72.979 18.4789C82.4067 15.951 92.3198 15.8433 101.8 18.1657" stroke="url(#paint8_linear_6_810)" stroke-width="4" stroke-linecap="round" stroke-linejoin="round"/>
</g>
<g filter="url(#filter8_f_6_810)">
<path d="M102.021 130.521C92.5933 133.049 82.6802 133.157 73.1998 130.834" stroke="url(#paint9_linear_6_810)" stroke-width="4" stroke-linecap="round" stroke-linejoin="round"/>
</g>
<defs>
<filter id="filter0_f_6_810" x="22.4316" y="80.6531" width="145.33" height="88.3708" filterUnits="userSpaceOnUse" color-interpolation-filters="sRGB">
<feFlood flood-opacity="0" result="BackgroundImageFix"/>
<feBlend mode="normal" in="SourceGraphic" in2="BackgroundImageFix" result="shape"/>
<feGaussianBlur stdDeviation="16" result="effect1_foregroundBlur_6_810"/>
</filter>
<filter id="filter1_dd_6_810" x="13" y="8.50003" width="164" height="164" filterUnits="userSpaceOnUse" color-interpolation-filters="sRGB">
<feFlood flood-opacity="0" result="BackgroundImageFix"/>
<feColorMatrix in="SourceAlpha" type="matrix" values="0 0 0 0 0 0 0 0 0 0 0 0 0 0 0 0 0 0 127 0" result="hardAlpha"/>
<feOffset dx="8" dy="16"/>
<feGaussianBlur stdDeviation="16"/>
<feComposite in2="hardAlpha" operator="out"/>
<feColorMatrix type="matrix" values="0 0 0 0 0 0 0 0 0 0 0 0 0 0 0 0 0 0 0.16 0"/>
<feBlend mode="normal" in2="BackgroundImageFix" result="effect1_dropShadow_6_810"/>
<feColorMatrix in="SourceAlpha" type="matrix" values="0 0 0 0 0 0 0 0 0 0 0 0 0 0 0 0 0 0 127 0" result="hardAlpha"/>
<feOffset dx="2" dy="6"/>
<feGaussianBlur stdDeviation="6"/>
<feComposite in2="hardAlpha" operator="out"/>
<feColorMatrix type="matrix" values="0 0 0 0 0 0 0 0 0 0 0 0 0 0 0 0 0 0 0.1 0"/>
<feBlend mode="normal" in2="effect1_dropShadow_6_810" result="effect2_dropShadow_6_810"/>
<feBlend mode="normal" in="SourceGraphic" in2="effect2_dropShadow_6_810" result="shape"/>
</filter>
<filter id="filter2_i_6_810" x="37" y="24.5" width="100" height="104" filterUnits="userSpaceOnUse" color-interpolation-filters="sRGB">
<feFlood flood-opacity="0" result="BackgroundImageFix"/>
<feBlend mode="normal" in="SourceGraphic" in2="BackgroundImageFix" result="shape"/>
<feColorMatrix in="SourceAlpha" type="matrix" values="0 0 0 0 0 0 0 0 0 0 0 0 0 0 0 0 0 0 127 0" result="hardAlpha"/>
<feOffset dy="4"/>
<feGaussianBlur stdDeviation="12"/>
<feComposite in2="hardAlpha" operator="arithmetic" k2="-1" k3="1"/>
<feColorMatrix type="matrix" values="0 0 0 0 0 0 0 0 0 0 0 0 0 0 0 0 0 0 0.25 0"/>
<feBlend mode="normal" in2="shape" result="effect1_innerShadow_6_810"/>
</filter>
<filter id="filter3_b_6_810" x="33" y="20.5" width="108" height="108" filterUnits="userSpaceOnUse" color-interpolation-filters="sRGB">
<feFlood flood-opacity="0" result="BackgroundImageFix"/>
<feGaussianBlur in="BackgroundImage" stdDeviation="2"/>
<feComposite in2="SourceAlpha" operator="in" result="effect1_backgroundBlur_6_810"/>
<feBlend mode="normal" in="SourceGraphic" in2="effect1_backgroundBlur_6_810" result="shape"/>
</filter>
<filter id="filter4_f_6_810" x="8" y="19.5" width="109" height="109" filterUnits="userSpaceOnUse" color-interpolation-filters="sRGB">
<feFlood flood-opacity="0" result="BackgroundImageFix"/>
<feBlend mode="normal" in="SourceGraphic" in2="BackgroundImageFix" result="shape"/>
<feGaussianBlur stdDeviation="16" result="effect1_foregroundBlur_6_810"/>
</filter>
<filter id="filter5_f_6_810" x="52" y="33.5" width="109" height="109" filterUnits="userSpaceOnUse" color-interpolation-filters="sRGB">
<feFlood flood-opacity="0" result="BackgroundImageFix"/>
<feBlend mode="normal" in="SourceGraphic" in2="BackgroundImageFix" result="shape"/>
<feGaussianBlur stdDeviation="16" result="effect1_foregroundBlur_6_810"/>
</filter>
<filter id="filter6_f_6_810" x="44.7349" y="0.720062" width="120.71" height="124.341" filterUnits="userSpaceOnUse" color-interpolation-filters="sRGB">
<feFlood flood-opacity="0" result="BackgroundImageFix"/>
<feBlend mode="normal" in="SourceGraphic" in2="BackgroundImageFix" result="shape"/>
<feGaussianBlur stdDeviation="16" result="effect1_foregroundBlur_6_810"/>
</filter>
<filter id="filter7_f_6_810" x="66.9785" y="10.5" width="40.8221" height="13.9793" filterUnits="userSpaceOnUse" color-interpolation-filters="sRGB">
<feFlood flood-opacity="0" result="BackgroundImageFix"/>
<feBlend mode="normal" in="SourceGraphic" in2="BackgroundImageFix" result="shape"/>
<feGaussianBlur stdDeviation="2" result="effect1_foregroundBlur_6_810"/>
</filter>
<filter id="filter8_f_6_810" x="67.1993" y="124.521" width="40.8221" height="13.9793" filterUnits="userSpaceOnUse" color-interpolation-filters="sRGB">
<feFlood flood-opacity="0" result="BackgroundImageFix"/>
<feBlend mode="normal" in="SourceGraphic" in2="BackgroundImageFix" result="shape"/>
<feGaussianBlur stdDeviation="2" result="effect1_foregroundBlur_6_810"/>
</filter>
<linearGradient id="paint0_linear_6_810" x1="164" y1="74.5" x2="176" y2="74.5" gradientUnits="userSpaceOnUse">
<stop stop-color="#6C2CBE"/>
<stop offset="1" stop-color="#1534EF"/>
</linearGradient>
<linearGradient id="paint1_linear_6_810" x1="164" y1="73" x2="145" y2="73" gradientUnits="userSpaceOnUse">
<stop stop-color="#6C2CBE"/>
<stop offset="1" stop-color="#1534EF"/>
</linearGradient>
<linearGradient id="paint2_linear_6_810" x1="87" y1="132.5" x2="87" y2="16.5" gradientUnits="userSpaceOnUse">
<stop stop-color="#6C2CBE"/>
<stop offset="1" stop-color="#1534EF"/>
</linearGradient>
<linearGradient id="paint3_linear_6_810" x1="60" y1="32" x2="113" y2="117.5" gradientUnits="userSpaceOnUse">
<stop stop-color="#D9D9D9"/>
<stop offset="0.0001" stop-color="#E6E6E6"/>
<stop offset="1" stop-color="#E6E6E6" stop-opacity="0"/>
</linearGradient>
<linearGradient id="paint4_linear_6_810" x1="60" y1="32.5" x2="117.5" y2="118" gradientUnits="userSpaceOnUse">
<stop stop-color="white"/>
<stop offset="0.0001" stop-color="#FFFEFE"/>
<stop offset="1" stop-color="white" stop-opacity="0"/>
</linearGradient>
<linearGradient id="paint5_linear_6_810" x1="74.3762" y1="40.8352" x2="70.5705" y2="59.4008" gradientUnits="userSpaceOnUse">
<stop stop-color="white"/>
<stop offset="0.0001" stop-color="#FFFEFE"/>
<stop offset="1" stop-color="white" stop-opacity="0"/>
</linearGradient>
<linearGradient id="paint6_linear_6_810" x1="125.414" y1="93.1985" x2="116.061" y2="87.8869" gradientUnits="userSpaceOnUse">
<stop stop-color="white"/>
<stop offset="0.0001" stop-color="#FFFEFE"/>
<stop offset="1" stop-color="white" stop-opacity="0"/>
</linearGradient>
<linearGradient id="paint7_linear_6_810" x1="96.6667" y1="115.75" x2="94.7928" y2="105.481" gradientUnits="userSpaceOnUse">
<stop stop-color="white"/>
<stop offset="0.0001" stop-color="#FFFEFE"/>
<stop offset="1" stop-color="white" stop-opacity="0"/>
</linearGradient>
<linearGradient id="paint8_linear_6_810" x1="30" y1="74.5" x2="146" y2="74.5" gradientUnits="userSpaceOnUse">
<stop stop-color="#6C2CBE"/>
<stop offset="1" stop-color="#1534EF"/>
</linearGradient>
<linearGradient id="paint9_linear_6_810" x1="145" y1="74.5" x2="29" y2="74.5" gradientUnits="userSpaceOnUse">
<stop stop-color="#6C2CBE"/>
<stop offset="1" stop-color="#1534EF"/>
</linearGradient>
<clipPath id="clip0_6_810">
<path d="M37 74.5C37 46.8858 59.3858 24.5 87 24.5C114.614 24.5 137 46.8858 137 74.5C137 102.114 114.614 124.5 87 124.5C59.3858 124.5 37 102.114 37 74.5Z" fill="white"/>
</clipPath>
</defs>
</svg>
